<svg xmlns="http://www.w3.org/2000/svg" width="777" height="755" viewBox="0 0 777 755" version="1.1"><path d="M 225.526 399.523 C 191.002 405.139, 162.507 419.553, 138.530 443.529 C 116.119 465.940, 101.212 494.250, 95.370 525.500 C 92.769 539.410, 92.769 566.590, 95.370 580.500 C 104.349 628.527, 135.220 669.732, 178.500 691.461 C 201.329 702.922, 221.166 707.500, 248 707.500 C 274.834 707.500, 294.671 702.922, 317.500 691.461 C 360.780 669.732, 391.651 628.527, 400.630 580.500 C 403.231 566.590, 403.231 539.410, 400.630 525.500 C 388.893 462.725, 340.710 413.712, 278.102 400.862 C 265.111 398.195, 237.941 397.503, 225.526 399.523 M 225 409.474 C 220.325 410.248, 212.450 412.085, 207.500 413.555 C 202.550 415.025, 197.713 416.454, 196.750 416.730 C 193.826 417.571, 194.772 418.705, 199.361 419.861 C 217.528 424.435, 242.490 442.860, 258.472 463.491 C 267.899 475.660, 271.835 481.894, 282.472 501.500 C 299.132 532.208, 309.771 546.906, 321.996 556.101 C 328.078 560.676, 336.471 564.863, 337.499 563.834 C 338.773 562.561, 340.091 546.732, 340.068 533 C 340.038 515.496, 338.382 502.771, 333.995 486.325 C 328.372 465.249, 316.180 439.024, 304.798 423.521 C 300.273 417.358, 299.803 417.025, 292.279 414.648 C 277.486 409.975, 270.250 408.877, 251.500 408.463 C 238.994 408.187, 230.905 408.496, 225 409.474 M 169.291 430.905 C 144.584 447.554, 126.507 468.505, 115.638 493.089 L 113.168 498.678 123.834 507.166 C 165.961 540.691, 210.889 567.956, 248 582.517 C 267.944 590.343, 316.949 605, 323.168 605 C 324.995 605, 328.692 597.116, 332.311 585.500 C 336.071 573.432, 336.142 574.057, 330.767 571.925 C 320.263 567.757, 310.202 559.774, 300.900 548.224 C 292.381 537.647, 287.489 529.851, 274.569 506.266 C 261.606 482.603, 253.950 471.393, 242.299 459.016 C 227.161 442.934, 210.328 432.214, 193.590 427.994 C 180.985 424.816, 177.751 425.204, 169.291 430.905 M 320.244 430.250 C 327.016 442.072, 329.189 446.374, 333.444 456.376 C 346.026 485.959, 351.796 519.780, 349.098 548.148 C 348.489 554.554, 347.705 561.224, 347.356 562.969 L 346.721 566.143 350.611 565.451 C 361.137 563.580, 377.974 554.556, 389.302 544.715 L 393.105 541.412 391.605 531.456 C 386.119 495.048, 366.814 461.623, 338.500 439.510 C 330.611 433.349, 319.706 426, 318.453 426 C 318.099 426, 318.905 427.913, 320.244 430.250 M 109.621 508.805 C 109.365 509.219, 108.250 513.144, 107.144 517.529 C 101.102 541.464, 101.610 569.726, 108.509 593.500 C 113.757 611.582, 126.643 636.446, 131.297 637.470 C 144.431 640.360, 177.931 641.759, 193.500 640.068 C 199.550 639.411, 214.400 637.241, 226.500 635.247 C 246.133 632.011, 250.544 631.614, 267.500 631.560 C 286.424 631.500, 286.525 631.512, 292.797 634.407 L 299.093 637.315 303.172 633.407 C 309.305 627.531, 319.231 614.816, 318.310 614.015 C 317.864 613.628, 310.750 611.614, 302.500 609.540 C 273.980 602.371, 244.612 592.047, 221.433 581.042 C 191.542 566.850, 152.138 541.555, 119.850 515.832 C 114.479 511.553, 109.876 508.391, 109.621 508.805 M 385.500 559.230 C 372.549 568.400, 356.900 575, 348.106 575 C 346.398 575, 345 575.166, 345 575.370 C 345 577.006, 338.473 597.135, 336.484 601.632 C 335.104 604.753, 334.092 607.404, 334.237 607.523 C 335.046 608.185, 374.984 614.988, 378.109 614.996 C 380.045 615.001, 384.892 603.284, 388.445 590.007 C 391.199 579.719, 393.318 564.440, 392.831 558.386 L 392.500 554.273 385.500 559.230 M 323.742 623.749 C 320.622 628.012, 315.191 634.349, 311.675 637.832 L 305.281 644.164 308.391 649.832 C 311.458 655.423, 311.500 655.692, 311.500 669.705 L 311.500 683.909 318 680.354 C 338.705 669.027, 358.069 650.683, 371.371 629.796 L 375.003 624.091 371.752 623.543 C 369.963 623.242, 365.350 622.531, 361.500 621.963 C 353.573 620.795, 333.295 617.133, 330.958 616.449 C 329.929 616.148, 327.525 618.580, 323.742 623.749 M 250.500 641.145 C 246.650 641.636, 235.175 643.361, 225 644.980 C 214.825 646.599, 202.687 648.391, 198.026 648.962 C 187.521 650.249, 160.520 650.282, 148.543 649.022 C 143.617 648.504, 139.368 648.299, 139.100 648.566 C 137.362 650.305, 163.228 671.979, 175.252 678.858 L 180.958 682.123 191.978 680.591 C 217.150 677.091, 242.064 669.903, 262 660.388 C 273.626 654.839, 290 645.140, 290 643.804 C 290 643.404, 287.668 642.385, 284.818 641.539 C 279.064 639.830, 262.327 639.638, 250.500 641.145 M 290.500 655.189 C 281.521 661.545, 258.436 672.877, 245.203 677.426 C 235.195 680.866, 211.096 687.095, 202 688.593 L 197.500 689.334 204.572 691.589 C 217.650 695.758, 226.204 697.108, 243 697.654 C 255.185 698.050, 262.115 697.787, 269.500 696.648 C 280.695 694.920, 296.866 690.515, 298.703 688.693 C 302.523 684.906, 304.176 666.323, 301.497 657.301 C 299.225 649.650, 298.517 649.514, 290.500 655.189" stroke="none" fill="#000000" fill-rule="evenodd"/><path d="M 356.477 115.250 L 348.500 123.500 356.750 115.523 C 364.412 108.115, 365.456 107, 364.727 107 C 364.576 107, 360.864 110.713, 356.477 115.250 M 592.966 147.750 L 587.500 153.500 593.250 148.034 C 598.592 142.956, 599.458 142, 598.716 142 C 598.560 142, 595.972 144.588, 592.966 147.750 M 583 158.500 C 580.571 160.975, 578.809 163, 579.084 163 C 579.359 163, 581.571 160.975, 584 158.500 C 586.429 156.025, 588.191 154, 587.916 154 C 587.641 154, 585.429 156.025, 583 158.500 M 242.784 371.738 C 245.689 371.941, 250.189 371.939, 252.784 371.734 C 255.378 371.528, 253 371.363, 247.500 371.365 C 242 371.368, 239.878 371.536, 242.784 371.738 M 225 409.474 C 220.325 410.248, 212.450 412.085, 207.500 413.555 C 202.550 415.025, 197.713 416.454, 196.750 416.730 C 193.826 417.571, 194.772 418.705, 199.361 419.861 C 217.528 424.435, 242.490 442.860, 258.472 463.491 C 267.899 475.660, 271.835 481.894, 282.472 501.500 C 299.132 532.208, 309.771 546.906, 321.996 556.101 C 328.078 560.676, 336.471 564.863, 337.499 563.834 C 338.773 562.561, 340.091 546.732, 340.068 533 C 340.038 515.496, 338.382 502.771, 333.995 486.325 C 328.372 465.249, 316.180 439.024, 304.798 423.521 C 300.273 417.358, 299.803 417.025, 292.279 414.648 C 277.486 409.975, 270.250 408.877, 251.500 408.463 C 238.994 408.187, 230.905 408.496, 225 409.474 M 368 417.275 C 368 417.426, 371.488 420.914, 375.750 425.025 L 383.500 432.500 376.025 424.750 C 369.082 417.552, 368 416.544, 368 417.275 M 169.291 430.905 C 144.584 447.554, 126.507 468.505, 115.638 493.089 L 113.168 498.678 123.834 507.166 C 165.961 540.691, 210.889 567.956, 248 582.517 C 267.944 590.343, 316.949 605, 323.168 605 C 324.995 605, 328.692 597.116, 332.311 585.500 C 336.071 573.432, 336.142 574.057, 330.767 571.925 C 320.263 567.757, 310.202 559.774, 300.900 548.224 C 292.381 537.647, 287.489 529.851, 274.569 506.266 C 261.606 482.603, 253.950 471.393, 242.299 459.016 C 227.161 442.934, 210.328 432.214, 193.590 427.994 C 180.985 424.816, 177.751 425.204, 169.291 430.905 M 320.244 430.250 C 327.016 442.072, 329.189 446.374, 333.444 456.376 C 346.026 485.959, 351.796 519.780, 349.098 548.148 C 348.489 554.554, 347.705 561.224, 347.356 562.969 L 346.721 566.143 350.611 565.451 C 361.137 563.580, 377.974 554.556, 389.302 544.715 L 393.105 541.412 391.605 531.456 C 386.119 495.048, 366.814 461.623, 338.500 439.510 C 330.611 433.349, 319.706 426, 318.453 426 C 318.099 426, 318.905 427.913, 320.244 430.250 M 109.621 508.805 C 109.365 509.219, 108.250 513.144, 107.144 517.529 C 101.102 541.464, 101.610 569.726, 108.509 593.500 C 113.757 611.582, 126.643 636.446, 131.297 637.470 C 144.431 640.360, 177.931 641.759, 193.500 640.068 C 199.550 639.411, 214.400 637.241, 226.500 635.247 C 246.133 632.011, 250.544 631.614, 267.500 631.560 C 286.424 631.500, 286.525 631.512, 292.797 634.407 L 299.093 637.315 303.172 633.407 C 309.305 627.531, 319.231 614.816, 318.310 614.015 C 317.864 613.628, 310.750 611.614, 302.500 609.540 C 273.980 602.371, 244.612 592.047, 221.433 581.042 C 191.542 566.850, 152.138 541.555, 119.850 515.832 C 114.479 511.553, 109.876 508.391, 109.621 508.805 M 385.500 559.230 C 372.549 568.400, 356.900 575, 348.106 575 C 346.398 575, 345 575.166, 345 575.370 C 345 577.006, 338.473 597.135, 336.484 601.632 C 335.104 604.753, 334.092 607.404, 334.237 607.523 C 335.046 608.185, 374.984 614.988, 378.109 614.996 C 380.045 615.001, 384.892 603.284, 388.445 590.007 C 391.199 579.719, 393.318 564.440, 392.831 558.386 L 392.500 554.273 385.500 559.230 M 323.742 623.749 C 320.622 628.012, 315.191 634.349, 311.675 637.832 L 305.281 644.164 308.391 649.832 C 311.458 655.423, 311.500 655.692, 311.500 669.705 L 311.500 683.909 318 680.354 C 338.705 669.027, 358.069 650.683, 371.371 629.796 L 375.003 624.091 371.752 623.543 C 369.963 623.242, 365.350 622.531, 361.500 621.963 C 353.573 620.795, 333.295 617.133, 330.958 616.449 C 329.929 616.148, 327.525 618.580, 323.742 623.749 M 250.500 641.145 C 246.650 641.636, 235.175 643.361, 225 644.980 C 214.825 646.599, 202.687 648.391, 198.026 648.962 C 187.521 650.249, 160.520 650.282, 148.543 649.022 C 143.617 648.504, 139.368 648.299, 139.100 648.566 C 137.362 650.305, 163.228 671.979, 175.252 678.858 L 180.958 682.123 191.978 680.591 C 217.150 677.091, 242.064 669.903, 262 660.388 C 273.626 654.839, 290 645.140, 290 643.804 C 290 643.404, 287.668 642.385, 284.818 641.539 C 279.064 639.830, 262.327 639.638, 250.500 641.145 M 290.500 655.189 C 281.521 661.545, 258.436 672.877, 245.203 677.426 C 235.195 680.866, 211.096 687.095, 202 688.593 L 197.500 689.334 204.572 691.589 C 217.650 695.758, 226.204 697.108, 243 697.654 C 255.185 698.050, 262.115 697.787, 269.500 696.648 C 280.695 694.920, 296.866 690.515, 298.703 688.693 C 302.523 684.906, 304.176 666.323, 301.497 657.301 C 299.225 649.650, 298.517 649.514, 290.500 655.189" stroke="none" fill="#f96c06" fill-rule="evenodd"/><path d="M 661 46.657 C 659.075 46.842, 652.325 47.473, 646 48.059 C 586.364 53.582, 525.097 71.025, 472.458 97.468 C 419.605 124.019, 374.998 157.336, 329.235 204.442 L 314.671 219.433 315.330 209.380 C 317.692 173.337, 330.322 142.968, 353.046 118.690 C 357.582 113.845, 365.164 106.903, 369.896 103.264 C 374.628 99.625, 378.950 96.219, 379.500 95.696 C 382.267 93.064, 348.766 99.677, 330.124 105.442 C 298.958 115.081, 270.237 130.140, 246.495 149.291 C 235.187 158.413, 214.845 179.771, 206 191.808 C 185.306 219.972, 168.557 254.712, 157.240 292.946 C 154.633 301.754, 152.104 308.837, 151.619 308.687 C 150.122 308.221, 143.121 294.694, 140.511 287.225 C 135.063 271.632, 133.579 251.007, 136.506 231.584 C 137.328 226.130, 137.818 221.485, 137.594 221.261 C 136.455 220.122, 114.570 252.704, 103.593 271.881 C 89.489 296.519, 72.728 334.284, 64.560 359.827 C 46.192 417.271, 42.205 474.245, 53.038 524.500 C 55.081 533.977, 62.822 559.073, 64.784 562.579 C 65.380 563.644, 65.901 558.530, 66.285 547.855 C 67.274 520.368, 73.138 496.220, 84.372 473.370 C 120.182 400.530, 198.624 360.388, 278.500 374.026 C 344.593 385.310, 398.820 432.376, 419.983 496.826 C 426.682 517.227, 428.438 529.046, 428.405 553.500 C 428.379 572.379, 428.106 575.779, 425.701 587.157 C 417.783 624.623, 403.156 652.490, 377.562 678.872 C 356.414 700.672, 331.949 716.124, 304.500 725.020 C 299 726.803, 294.139 728.585, 293.698 728.982 C 291.413 731.038, 331.309 732.477, 350.955 731.048 C 424.869 725.670, 482.704 699.176, 535.514 646.500 C 568.571 613.527, 595.988 574.947, 619.014 529 C 626.076 514.908, 632.208 501, 631.359 501 C 631.048 501, 627.578 503.780, 623.647 507.177 C 603.275 524.784, 582.843 533.638, 560.033 534.743 L 548.567 535.298 551.790 531.399 C 611.813 458.777, 643.932 374.986, 651.970 270.050 C 653.082 255.527, 653.218 185.014, 652.151 176 L 651.500 170.500 647.636 182.500 C 629.129 239.975, 600.319 279.709, 556.354 308.393 C 546.406 314.884, 526.640 324.965, 516.250 328.846 C 510.058 331.160, 510.377 332.173, 512.519 317 C 517.818 279.451, 527.733 247.099, 543.264 216.685 C 578.311 148.047, 637.290 99.616, 740.250 54.928 C 748.362 51.407, 755 48.251, 755 47.915 C 755 46.695, 732.952 46.003, 699.094 46.160 C 680.067 46.248, 662.925 46.472, 661 46.657" stroke="none" fill="#04ac94" fill-rule="evenodd"/></svg>