<?xml version="1.0" encoding="UTF-8"?>
<!DOCTYPE svg PUBLIC "-//W3C//DTD SVG 1.1//EN" "http://www.w3.org/Graphics/SVG/1.1/DTD/svg11.dtd">
<svg xmlns="http://www.w3.org/2000/svg" version="1.1" width="518px" height="518px" style="shape-rendering:geometricPrecision; text-rendering:geometricPrecision; image-rendering:optimizeQuality; fill-rule:evenodd; clip-rule:evenodd" xmlns:xlink="http://www.w3.org/1999/xlink">
<g><path style="opacity:1" fill="#2ac898" d="M 242.5,-0.5 C 253.167,-0.5 263.833,-0.5 274.5,-0.5C 367.222,8.46685 437.889,53.3002 486.5,134C 486.167,134.333 485.833,134.667 485.5,135C 498.061,156.321 506.894,179.155 512,203.5C 513.975,216.66 515.809,229.66 517.5,242.5C 517.5,253.167 517.5,263.833 517.5,274.5C 508.497,367.274 463.664,437.941 383,486.5C 382.667,486.167 382.333,485.833 382,485.5C 363.191,496.658 343.024,504.824 321.5,510C 305.917,513.487 290.25,515.987 274.5,517.5C 263.833,517.5 253.167,517.5 242.5,517.5C 149.798,508.547 79.1312,463.714 30.5,383C 30.8333,382.667 31.1667,382.333 31.5,382C 18.9389,360.679 10.1056,337.845 5,313.5C 3.02456,300.34 1.19123,287.34 -0.5,274.5C -0.5,263.833 -0.5,253.167 -0.5,242.5C 8.46467,149.781 53.298,79.114 134,30.5C 134.333,30.8333 134.667,31.1667 135,31.5C 153.809,20.3423 173.976,12.1756 195.5,7C 211.083,3.51253 226.75,1.01253 242.5,-0.5 Z"/></g>
<g><path style="opacity:1" fill="#fdfefe" d="M 233.5,18.5 C 265.156,16.106 296.156,18.9393 326.5,27C 385.819,46.4403 432.319,82.6069 466,135.5C 474.159,149.432 480.826,164.099 486,179.5C 487.316,184.097 488.316,188.764 489,193.5C 489.919,197.518 491.586,201.185 494,204.5C 509.207,285.636 490.207,357.303 437,419.5C 382.255,478.215 314.422,504.382 233.5,498C 140.509,485.098 74.6761,435.931 36,350.5C 33.5303,342.24 30.5303,334.24 27,326.5C 23.7666,310.316 21.0999,293.983 19,277.5C 18.3333,260.167 18.3333,242.833 19,225.5C 21.8113,218.857 23.1446,211.857 23,204.5C 46.9963,116 102.496,57 189.5,27.5C 204.176,24.0073 218.842,21.0073 233.5,18.5 Z"/></g>
<g><path style="opacity:1" fill="#939495" d="M 280.5,121.5 C 280.5,102.5 280.5,83.5 280.5,64.5C 262.5,64.5 244.5,64.5 226.5,64.5C 226.5,83.5 226.5,102.5 226.5,121.5C 225.503,102.341 225.17,83.0072 225.5,63.5C 244.167,63.5 262.833,63.5 281.5,63.5C 281.83,83.0072 281.497,102.341 280.5,121.5 Z"/></g>
<g><path style="opacity:0.004" fill="#000000" d="M 73.5,73.5 C 74.8333,74.1667 74.8333,74.1667 73.5,73.5 Z"/></g>
<g><path style="opacity:0.004" fill="#000000" d="M 442.5,73.5 C 443.833,74.1667 443.833,74.1667 442.5,73.5 Z"/></g>
<g><path style="opacity:1" fill="#6f7072" d="M 170.5,106.5 C 171.487,125.424 171.82,144.424 171.5,163.5C 171.5,164.167 171.167,164.5 170.5,164.5C 163.833,164.5 157.167,164.5 150.5,164.5C 156.979,163.509 163.646,163.176 170.5,163.5C 170.5,145.167 170.5,126.833 170.5,108.5C 153.167,108.5 135.833,108.5 118.5,108.5C 118.5,126.5 118.5,144.5 118.5,162.5C 126.903,161.866 134.903,162.533 142.5,164.5C 133.915,164.817 125.415,164.483 117,163.5C 116.5,144.503 116.333,125.503 116.5,106.5C 134.5,106.5 152.5,106.5 170.5,106.5 Z"/></g>
<g><path style="opacity:1" fill="#4f5052" d="M 280.5,121.5 C 272.493,121.334 264.493,121.5 256.5,122C 256,122.5 255.5,123 255,123.5C 254.333,148.5 254.333,173.5 255,198.5C 289.427,199.496 323.927,199.829 358.5,199.5C 358.828,188.321 358.495,177.321 357.5,166.5C 350.5,165.833 343.5,165.167 336.5,164.5C 336.5,145.833 336.5,127.167 336.5,108.5C 354.167,108.5 371.833,108.5 389.5,108.5C 389.5,127.5 389.5,146.5 389.5,165.5C 381.826,165.334 374.159,165.5 366.5,166C 366,166.5 365.5,167 365,167.5C 364.175,178.341 364.341,189.008 365.5,199.5C 398.664,200.332 431.997,200.832 465.5,201C 461.498,203.839 459.165,207.673 458.5,212.5C 452.869,235.473 451.036,258.806 453,282.5C 453.446,289.189 454.113,295.856 455,302.5C 457.702,306.323 459.035,310.656 459,315.5C 460.836,318.843 463.003,321.843 465.5,324.5C 466.833,325.167 468.167,325.833 469.5,326.5C 469.167,326.5 468.833,326.5 468.5,326.5C 434.444,327.156 400.611,326.489 367,324.5C 366.29,325.973 365.124,326.64 363.5,326.5C 363.333,339.171 363.5,351.838 364,364.5C 365.333,365.167 366.333,366.167 367,367.5C 367.5,367 368,366.5 368.5,366C 376.493,365.5 384.493,365.334 392.5,365.5C 392.667,383.836 392.5,402.17 392,420.5C 375.244,419.508 358.411,419.175 341.5,419.5C 341.5,401.5 341.5,383.5 341.5,365.5C 348.422,365.812 355.256,365.479 362,364.5C 362.827,351.993 362.66,339.66 361.5,327.5C 328.329,327.168 295.329,327.502 262.5,328.5C 261.502,354.661 261.169,380.995 261.5,407.5C 269.167,407.5 276.833,407.5 284.5,407.5C 284.5,426.167 284.5,444.833 284.5,463.5C 266.5,463.5 248.5,463.5 230.5,463.5C 230.5,444.833 230.5,426.167 230.5,407.5C 238.568,406.82 246.735,406.153 255,405.5C 255.815,379.458 255.648,353.458 254.5,327.5C 220.669,326.336 186.669,326.169 152.5,327C 151.171,338.598 151.171,350.098 152.5,361.5C 159.76,363.465 167.427,364.132 175.5,363.5C 175.5,382.5 175.5,401.5 175.5,420.5C 175.167,420.5 174.833,420.5 174.5,420.5C 156.5,420.5 138.5,420.5 120.5,420.5C 120.5,401.5 120.5,382.5 120.5,363.5C 129.085,363.817 137.585,363.483 146,362.5C 146.5,350.838 146.667,339.171 146.5,327.5C 113.5,327.5 80.5,327.5 47.5,327.5C 45.8814,325.881 44.2147,324.215 42.5,322.5C 34.3559,303.384 31.0225,283.384 32.5,262.5C 31.062,242.38 33.8953,223.047 41,204.5C 42.7297,202.598 44.563,200.931 46.5,199.5C 78.8333,199.5 111.167,199.5 143.5,199.5C 143.811,187.753 143.478,176.086 142.5,164.5C 134.903,162.533 126.903,161.866 118.5,162.5C 118.5,144.5 118.5,126.5 118.5,108.5C 135.833,108.5 153.167,108.5 170.5,108.5C 170.5,126.833 170.5,145.167 170.5,163.5C 163.646,163.176 156.979,163.509 150.5,164.5C 149.883,164.611 149.383,164.944 149,165.5C 148.18,176.743 148.347,187.91 149.5,199C 182.832,199.5 216.165,199.667 249.5,199.5C 249.667,173.831 249.5,148.165 249,122.5C 241.587,121.519 234.087,121.186 226.5,121.5C 226.5,102.5 226.5,83.5 226.5,64.5C 244.5,64.5 262.5,64.5 280.5,64.5C 280.5,83.5 280.5,102.5 280.5,121.5 Z"/></g>
<g><path style="opacity:1" fill="#b6b6b7" d="M 170.5,106.5 C 171.832,115.642 172.498,125.142 172.5,135C 172.5,144.673 172.166,154.173 171.5,163.5C 171.82,144.424 171.487,125.424 170.5,106.5 Z"/></g>
<g><path style="opacity:1" fill="#cacacb" d="M 170.5,106.5 C 152.5,106.5 134.5,106.5 116.5,106.5C 116.333,125.503 116.5,144.503 117,163.5C 125.415,164.483 133.915,164.817 142.5,164.5C 143.478,176.086 143.811,187.753 143.5,199.5C 111.167,199.5 78.8333,199.5 46.5,199.5C 77.9956,198.502 109.662,198.168 141.5,198.5C 141.5,187.5 141.5,176.5 141.5,165.5C 132.833,165.5 124.167,165.5 115.5,165.5C 115.5,145.5 115.5,125.5 115.5,105.5C 134.008,105.17 152.341,105.503 170.5,106.5 Z"/></g>
<g><path style="opacity:1" fill="#bfc0c0" d="M 226.5,121.5 C 234.087,121.186 241.587,121.519 249,122.5C 249.5,148.165 249.667,173.831 249.5,199.5C 216.165,199.667 182.832,199.5 149.5,199C 148.347,187.91 148.18,176.743 149,165.5C 149.383,164.944 149.883,164.611 150.5,164.5C 157.167,164.5 163.833,164.5 170.5,164.5C 164.021,165.491 157.354,165.824 150.5,165.5C 150.5,176.5 150.5,187.5 150.5,198.5C 183.167,198.5 215.833,198.5 248.5,198.5C 248.667,173.498 248.5,148.498 248,123.5C 240.734,122.849 233.568,122.182 226.5,121.5 Z"/></g>
<g><path style="opacity:1" fill="#bbbcbc" d="M 280.5,121.5 C 272.765,122.181 264.932,122.848 257,123.5C 256.5,148.498 256.333,173.498 256.5,198.5C 290.167,198.5 323.833,198.5 357.5,198.5C 357.5,187.833 357.5,177.167 357.5,166.5C 358.495,177.321 358.828,188.321 358.5,199.5C 323.927,199.829 289.427,199.496 255,198.5C 254.333,173.5 254.333,148.5 255,123.5C 255.5,123 256,122.5 256.5,122C 264.493,121.5 272.493,121.334 280.5,121.5 Z"/></g>
<g><path style="opacity:1" fill="#d1d1d2" d="M 468.5,199.5 C 434.167,199.5 399.833,199.5 365.5,199.5C 364.341,189.008 364.175,178.341 365,167.5C 365.5,167 366,166.5 366.5,166C 374.159,165.5 381.826,165.334 389.5,165.5C 390.497,146.341 390.83,127.007 390.5,107.5C 372.167,107.5 353.833,107.5 335.5,107.5C 335.17,126.674 335.503,145.674 336.5,164.5C 343.5,165.167 350.5,165.833 357.5,166.5C 349.913,166.814 342.413,166.481 335,165.5C 334.333,145.833 334.333,126.167 335,106.5C 353.426,105.341 371.926,105.175 390.5,106C 391.659,126.094 391.826,146.26 391,166.5C 382.919,167.482 374.752,167.816 366.5,167.5C 366.5,177.833 366.5,188.167 366.5,198.5C 400.671,198.168 434.671,198.502 468.5,199.5 Z"/></g>
<g><path style="opacity:1" fill="#8e8f91" d="M 389.5,165.5 C 389.5,146.5 389.5,127.5 389.5,108.5C 371.833,108.5 354.167,108.5 336.5,108.5C 336.5,127.167 336.5,145.833 336.5,164.5C 335.503,145.674 335.17,126.674 335.5,107.5C 353.833,107.5 372.167,107.5 390.5,107.5C 390.83,127.007 390.497,146.341 389.5,165.5 Z"/></g>
<g><path style="opacity:1" fill="#fafafa" d="M 465.5,324.5 C 463.003,321.843 460.836,318.843 459,315.5C 459.035,310.656 457.702,306.323 455,302.5C 454.113,295.856 453.446,289.189 453,282.5C 451.036,258.806 452.869,235.473 458.5,212.5C 461.098,209.582 463.431,206.415 465.5,203C 468.642,203.088 471.142,204.588 473,207.5C 476.443,218.931 478.777,230.598 480,242.5C 482.465,268.655 480.132,294.322 473,319.5C 471.114,322.242 468.614,323.909 465.5,324.5 Z"/></g>
<g><path style="opacity:1" fill="#249783" d="M 101.5,235.5 C 108.438,234.902 115.105,235.735 121.5,238C 127.29,242.445 130.457,248.279 131,255.5C 135.311,256.822 138.977,259.155 142,262.5C 143.515,269.285 142.348,275.452 138.5,281C 127.663,283.305 116.663,284.139 105.5,283.5C 105.5,282.167 105.5,280.833 105.5,279.5C 114.506,279.666 123.506,279.5 132.5,279C 139.069,275.958 140.903,271.125 138,264.5C 135.035,261.189 131.368,259.189 127,258.5C 126.857,254.381 126.19,250.381 125,246.5C 118.021,238.643 109.521,236.476 99.5,240C 95.7505,243.02 92.5838,246.52 90,250.5C 81.8788,245.075 76.5455,247.075 74,256.5C 63.6624,261.65 61.8291,268.816 68.5,278C 68.1667,278.833 67.8333,279.667 67.5,280.5C 57.2883,269.71 58.7883,260.71 72,253.5C 72.737,249.953 74.5703,247.12 77.5,245C 81.8333,244.667 86.1667,244.333 90.5,244C 91.982,242.017 93.6487,240.184 95.5,238.5C 97.78,237.864 99.78,236.864 101.5,235.5 Z"/></g>
<g><path style="opacity:1" fill="#a4a4a6" d="M 317.5,245.5 C 318.822,245.33 319.989,245.663 321,246.5C 321.182,249.226 321.682,251.893 322.5,254.5C 334.032,252.873 338.532,257.873 336,269.5C 335.215,271.286 334.049,272.786 332.5,274C 327.542,275.12 322.542,275.62 317.5,275.5C 317.5,265.5 317.5,255.5 317.5,245.5 Z"/></g>
<g><path style="opacity:1" fill="#7f7f81" d="M 365.5,199.5 C 399.833,199.5 434.167,199.5 468.5,199.5C 472.523,203.032 475.523,207.365 477.5,212.5C 482.568,229.109 484.568,246.109 483.5,263.5C 484.375,281.875 482.208,299.875 477,317.5C 474.824,320.529 472.657,323.529 470.5,326.5C 470.167,326.5 469.833,326.5 469.5,326.5C 468.167,325.833 466.833,325.167 465.5,324.5C 468.614,323.909 471.114,322.242 473,319.5C 480.132,294.322 482.465,268.655 480,242.5C 478.777,230.598 476.443,218.931 473,207.5C 471.142,204.588 468.642,203.088 465.5,203C 463.431,206.415 461.098,209.582 458.5,212.5C 459.165,207.673 461.498,203.839 465.5,201C 431.997,200.832 398.664,200.332 365.5,199.5 Z"/></g>
<g><path style="opacity:1" fill="#b4b4b5" d="M 343.5,246.5 C 346.85,246.335 350.183,246.502 353.5,247C 354.973,247.71 355.64,248.876 355.5,250.5C 352.998,250.251 350.498,249.917 348,249.5C 344.956,249.546 343.123,251.046 342.5,254C 342.439,255.711 343.106,257.044 344.5,258C 350.237,259.085 354.57,262.085 357.5,267C 356.937,271.229 354.604,273.895 350.5,275C 346.39,276.143 342.724,275.477 339.5,273C 342.842,273.544 346.175,273.377 349.5,272.5C 352.722,270.86 354.056,268.193 353.5,264.5C 347.895,263.28 343.061,260.613 339,256.5C 338.333,254.833 338.333,253.167 339,251.5C 340.366,249.638 341.866,247.972 343.5,246.5 Z"/></g>
<g><path style="opacity:1" fill="#d0d1d1" d="M 109.5,258.5 C 105.5,258.5 101.5,258.5 97.5,258.5C 97.2317,255.881 97.565,253.381 98.5,251C 104.825,250.5 111.158,250.334 117.5,250.5C 117.5,256.833 117.5,263.167 117.5,269.5C 114.833,269.5 112.167,269.5 109.5,269.5C 109.5,265.833 109.5,262.167 109.5,258.5 Z"/></g>
<g><path style="opacity:1" fill="#b9baba" d="M 275.5,247.5 C 279.514,247.334 283.514,247.501 287.5,248C 289.329,248.273 290.829,249.107 292,250.5C 293.563,260.774 289.063,265.441 278.5,264.5C 278.5,267.833 278.5,271.167 278.5,274.5C 277.5,274.5 276.5,274.5 275.5,274.5C 275.5,265.5 275.5,256.5 275.5,247.5 Z"/></g>
<g><path style="opacity:1" fill="#fcfcfc" d="M 109.5,258.5 C 106.663,256.598 103.329,255.931 99.5,256.5C 99.5,255.167 99.5,253.833 99.5,252.5C 104.833,252.5 110.167,252.5 115.5,252.5C 115.5,257.5 115.5,262.5 115.5,267.5C 113.833,267.5 112.167,267.5 110.5,267.5C 110.81,264.287 110.477,261.287 109.5,258.5 Z"/></g>
<g><path style="opacity:1" fill="#58595b" d="M 278.5,249.5 C 281.91,249.457 285.243,249.957 288.5,251C 291.565,255.476 290.565,258.81 285.5,261C 283.167,261.667 280.833,261.667 278.5,261C 277.2,257.168 277.2,253.334 278.5,249.5 Z"/></g>
<g><path style="opacity:1" fill="#505153" d="M 323.5,256.5 C 330.12,255.123 333.453,257.79 333.5,264.5C 333.596,266.926 332.93,269.093 331.5,271C 328.446,271.821 325.446,271.655 322.5,270.5C 320.917,265.595 321.251,260.928 323.5,256.5 Z"/></g>
<g><path style="opacity:1" fill="#cecfcf" d="M 180.5,254.5 C 193.568,251.406 199.068,256.406 197,269.5C 190.351,277.413 183.685,277.413 177,269.5C 176.175,265.789 176.341,262.122 177.5,258.5C 178.934,257.412 179.934,256.078 180.5,254.5 Z"/></g>
<g><path style="opacity:1" fill="#d2d2d3" d="M 161.5,246.5 C 164.898,246.18 168.232,246.513 171.5,247.5C 172.853,248.524 173.52,249.857 173.5,251.5C 169.5,251.5 165.5,251.5 161.5,251.5C 161.244,253.792 161.577,255.959 162.5,258C 166.562,259.448 170.395,261.282 174,263.5C 174.745,274.722 169.579,278.556 158.5,275C 157.663,273.989 157.33,272.822 157.5,271.5C 161.182,271.665 164.848,271.499 168.5,271C 170.576,269.116 170.91,266.949 169.5,264.5C 165.028,263.191 161.195,260.858 158,257.5C 156.662,252.96 157.829,249.293 161.5,246.5 Z"/></g>
<g><path style="opacity:1" fill="#dbdcdc" d="M 201.5,245.5 C 202.828,250.119 203.494,255.119 203.5,260.5C 203.167,265.5 202.833,270.5 202.5,275.5C 201.914,275.291 201.414,274.957 201,274.5C 200.194,264.756 200.361,255.089 201.5,245.5 Z"/></g>
<g><path style="opacity:1" fill="#babbbc" d="M 399.5,258.5 C 399.984,263.759 399.317,268.759 397.5,273.5C 395.135,274.594 392.635,275.261 390,275.5C 387.23,274.455 384.397,273.788 381.5,273.5C 381.5,264.5 381.5,255.5 381.5,246.5C 382.5,246.5 383.5,246.5 384.5,246.5C 384.5,249.167 384.5,251.833 384.5,254.5C 388.182,254.335 391.848,254.501 395.5,255C 397.093,255.949 398.426,257.115 399.5,258.5 Z"/></g>
<g><path style="opacity:1" fill="#515254" d="M 386.5,256.5 C 397.514,255.863 400.514,260.529 395.5,270.5C 392.167,271.833 388.833,271.833 385.5,270.5C 383.993,265.652 384.326,260.985 386.5,256.5 Z"/></g>
<g><path style="opacity:1" fill="#919293" d="M 397.5,273.5 C 399.317,268.759 399.984,263.759 399.5,258.5C 400.222,258.918 400.722,259.584 401,260.5C 404.057,259.549 407.223,259.216 410.5,259.5C 410.5,257.167 410.5,254.833 410.5,252.5C 411.5,252.5 412.5,252.5 413.5,252.5C 413.5,254.833 413.5,257.167 413.5,259.5C 415.833,259.5 418.167,259.5 420.5,259.5C 420.5,260.5 420.5,261.5 420.5,262.5C 417.833,262.5 415.167,262.5 412.5,262.5C 411.833,273.167 411.167,273.167 410.5,262.5C 407.5,262.5 404.5,262.5 401.5,262.5C 401.453,265.568 400.953,268.568 400,271.5C 399.292,272.381 398.458,273.047 397.5,273.5 Z"/></g>
<g><path style="opacity:1" fill="#f5f5f5" d="M 96.5,282.5 C 95.8333,279.167 95.1667,275.833 94.5,272.5C 91.0381,271.518 87.3714,271.185 83.5,271.5C 83.5,269.5 83.5,267.5 83.5,265.5C 89.5,265.5 95.5,265.5 101.5,265.5C 101.5,271.167 101.5,276.833 101.5,282.5C 99.8333,282.5 98.1667,282.5 96.5,282.5 Z"/></g>
<g><path style="opacity:1" fill="#b7b7b8" d="M 96.5,282.5 C 98.1667,282.5 99.8333,282.5 101.5,282.5C 101.5,276.833 101.5,271.167 101.5,265.5C 95.5,265.5 89.5,265.5 83.5,265.5C 83.5,267.5 83.5,269.5 83.5,271.5C 87.3714,271.185 91.0381,271.518 94.5,272.5C 90.5,272.5 86.5,272.5 82.5,272.5C 82.5,269.833 82.5,267.167 82.5,264.5C 89.1667,264.5 95.8333,264.5 102.5,264.5C 102.5,270.833 102.5,277.167 102.5,283.5C 100.265,283.795 98.2646,283.461 96.5,282.5 Z"/></g>
<g><path style="opacity:1" fill="#5c5d5f" d="M 183.5,256.5 C 193.128,256.138 196.128,260.472 192.5,269.5C 188.733,272.02 184.9,272.02 181,269.5C 179.743,264.617 180.576,260.284 183.5,256.5 Z"/></g>
<g><path style="opacity:1" fill="#d6d6d6" d="M 231.5,254.5 C 234.898,254.18 238.232,254.513 241.5,255.5C 232.424,255.864 229.258,260.53 232,269.5C 232.5,270 233,270.5 233.5,271C 236.817,271.498 240.15,271.665 243.5,271.5C 242.981,274.775 240.981,276.108 237.5,275.5C 235.772,275.41 234.106,275.077 232.5,274.5C 231.472,272.639 229.972,271.305 228,270.5C 226.432,264.375 227.599,259.042 231.5,254.5 Z"/></g>
<g><path style="opacity:1" fill="#d4d4d5" d="M 248.5,254.5 C 253.109,253.974 257.443,254.641 261.5,256.5C 262.48,259.086 262.813,261.753 262.5,264.5C 257.833,264.5 253.167,264.5 248.5,264.5C 248.081,267.325 249.081,269.491 251.5,271C 255.211,271.175 258.878,271.675 262.5,272.5C 259.03,275.394 255.03,276.227 250.5,275C 243.27,268.868 242.603,262.034 248.5,254.5 Z"/></g>
<g><path style="opacity:1" fill="#626365" d="M 251.5,256.5 C 254.308,256.693 256.975,257.36 259.5,258.5C 259.5,259.833 259.5,261.167 259.5,262.5C 256.167,262.5 252.833,262.5 249.5,262.5C 249.604,260.297 250.27,258.297 251.5,256.5 Z"/></g>
<g><path style="opacity:1" fill="#cececf" d="M 210.5,254.5 C 214.514,254.334 218.514,254.501 222.5,255C 223,255.5 223.5,256 224,256.5C 224.83,262.528 224.664,268.528 223.5,274.5C 221.333,273.046 219.333,273.212 217.5,275C 208.019,276.011 205.352,272.177 209.5,263.5C 212.95,261.776 216.617,261.109 220.5,261.5C 220.703,259.61 220.037,258.11 218.5,257C 215.808,256.57 213.141,256.737 210.5,257.5C 210.5,256.5 210.5,255.5 210.5,254.5 Z"/></g>
<g><path style="opacity:1" fill="#565759" d="M 213.5,265.5 C 215.833,265.5 218.167,265.5 220.5,265.5C 220.672,267.492 220.005,269.158 218.5,270.5C 215.914,271.48 213.247,271.813 210.5,271.5C 210.5,269.833 210.5,268.167 210.5,266.5C 211.791,266.737 212.791,266.404 213.5,265.5 Z"/></g>
<g><path style="opacity:1" fill="#b0b0b1" d="M 296.5,254.5 C 298.45,259.735 299.117,265.402 298.5,271.5C 302.226,271.823 305.893,271.489 309.5,270.5C 310.451,265.23 310.785,259.897 310.5,254.5C 311.833,254.5 313.167,254.5 314.5,254.5C 314.666,261.175 314.5,267.842 314,274.5C 310.888,274.657 307.721,275.324 304.5,276.5C 301.209,276.721 298.709,275.387 297,272.5C 296.501,266.509 296.334,260.509 296.5,254.5 Z"/></g>
<g><path style="opacity:1" fill="#afafb0" d="M 359.5,254.5 C 360.5,254.5 361.5,254.5 362.5,254.5C 362.334,259.511 362.501,264.511 363,269.5C 366.421,272.124 369.921,272.124 373.5,269.5C 374.167,264.833 374.833,260.167 375.5,255.5C 376.496,261.798 376.83,268.132 376.5,274.5C 373.31,274.559 370.143,274.893 367,275.5C 364.739,275.561 362.739,274.894 361,273.5C 359.584,267.285 359.084,260.952 359.5,254.5 Z"/></g>
<g><path style="opacity:1" fill="#f9f9f9" d="M 72.5,279.5 C 77.5,279.5 82.5,279.5 87.5,279.5C 87.5,283.833 87.5,288.167 87.5,292.5C 82.5,292.5 77.5,292.5 72.5,292.5C 72.5,288.167 72.5,283.833 72.5,279.5 Z"/></g>
<g><path style="opacity:1" fill="#797a7c" d="M 254.5,327.5 C 220.832,327.333 187.165,327.5 153.5,328C 152.513,339.085 152.179,350.252 152.5,361.5C 151.171,350.098 151.171,338.598 152.5,327C 186.669,326.169 220.669,326.336 254.5,327.5 Z"/></g>
<g><path style="opacity:1" fill="#bbbbbc" d="M 468.5,326.5 C 468.833,326.5 469.167,326.5 469.5,326.5C 469.833,326.5 470.167,326.5 470.5,326.5C 470.389,327.117 470.056,327.617 469.5,328C 435.835,328.5 402.168,328.667 368.5,328.5C 368.189,340.247 368.522,351.914 369.5,363.5C 367.521,351.88 366.854,339.88 367.5,327.5C 401.337,327.832 435.004,327.498 468.5,326.5 Z"/></g>
<g><path style="opacity:1" fill="#dededf" d="M 361.5,327.5 C 361.828,339.678 361.495,351.678 360.5,363.5C 353.245,363.187 346.079,363.52 339,364.5C 338.333,383.5 338.333,402.5 339,421.5C 357.264,422.831 375.431,422.831 393.5,421.5C 394.497,402.674 394.83,383.674 394.5,364.5C 395.662,383.662 395.829,402.996 395,422.5C 376.24,423.659 357.407,423.825 338.5,423C 337.341,403.24 337.174,383.407 338,363.5C 345.413,362.519 352.913,362.186 360.5,362.5C 360.5,351.5 360.5,340.5 360.5,329.5C 328.167,329.5 295.833,329.5 263.5,329.5C 263.5,354.5 263.5,379.5 263.5,404.5C 271.243,403.87 278.576,404.537 285.5,406.5C 277.833,406.5 270.167,406.5 262.5,406.5C 262.5,380.5 262.5,354.5 262.5,328.5C 295.329,327.502 328.329,327.168 361.5,327.5 Z"/></g>
<g><path style="opacity:1" fill="#d9d9da" d="M 254.5,327.5 C 255.648,353.458 255.815,379.458 255,405.5C 246.735,406.153 238.568,406.82 230.5,407.5C 229.503,426.326 229.17,445.326 229.5,464.5C 228.338,445.338 228.171,426.004 229,406.5C 236.894,404.551 245.061,403.884 253.5,404.5C 253.5,379.5 253.5,354.5 253.5,329.5C 220.5,329.5 187.5,329.5 154.5,329.5C 154.5,339.833 154.5,350.167 154.5,360.5C 161.755,360.187 168.921,360.52 176,361.5C 176.829,381.338 176.662,401.004 175.5,420.5C 175.5,401.5 175.5,382.5 175.5,363.5C 167.427,364.132 159.76,363.465 152.5,361.5C 152.179,350.252 152.513,339.085 153.5,328C 187.165,327.5 220.832,327.333 254.5,327.5 Z"/></g>
<g><path style="opacity:1" fill="#b7b7b8" d="M 47.5,327.5 C 80.5,327.5 113.5,327.5 146.5,327.5C 146.667,339.171 146.5,350.838 146,362.5C 137.585,363.483 129.085,363.817 120.5,363.5C 120.5,382.5 120.5,401.5 120.5,420.5C 138.5,420.5 156.5,420.5 174.5,420.5C 156.53,422.487 138.197,423.154 119.5,422.5C 119.333,402.497 119.5,382.497 120,362.5C 128.081,361.518 136.248,361.184 144.5,361.5C 144.5,350.5 144.5,339.5 144.5,328.5C 111.996,328.832 79.6624,328.498 47.5,327.5 Z"/></g>
<g><path style="opacity:1" fill="#afafb0" d="M 360.5,363.5 C 353.766,364.183 346.932,364.85 340,365.5C 339.333,383.833 339.333,402.167 340,420.5C 357.757,421.492 375.59,421.826 393.5,421.5C 375.431,422.831 357.264,422.831 339,421.5C 338.333,402.5 338.333,383.5 339,364.5C 346.079,363.52 353.245,363.187 360.5,363.5 Z"/></g>
<g><path style="opacity:1" fill="#9e9e9f" d="M 369.5,363.5 C 378.017,363.174 386.35,363.507 394.5,364.5C 394.83,383.674 394.497,402.674 393.5,421.5C 393.5,402.5 393.5,383.5 393.5,364.5C 385.316,364.826 377.316,364.492 369.5,363.5 Z"/></g>
<g><path style="opacity:1" fill="#616264" d="M 468.5,326.5 C 435.004,327.498 401.337,327.832 367.5,327.5C 366.854,339.88 367.521,351.88 369.5,363.5C 377.316,364.492 385.316,364.826 393.5,364.5C 393.5,383.5 393.5,402.5 393.5,421.5C 375.59,421.826 357.757,421.492 340,420.5C 339.333,402.167 339.333,383.833 340,365.5C 346.932,364.85 353.766,364.183 360.5,363.5C 361.495,351.678 361.828,339.678 361.5,327.5C 362.66,339.66 362.827,351.993 362,364.5C 355.256,365.479 348.422,365.812 341.5,365.5C 341.5,383.5 341.5,401.5 341.5,419.5C 358.411,419.175 375.244,419.508 392,420.5C 392.5,402.17 392.667,383.836 392.5,365.5C 384.493,365.334 376.493,365.5 368.5,366C 368,366.5 367.5,367 367,367.5C 366.333,366.167 365.333,365.167 364,364.5C 363.5,351.838 363.333,339.171 363.5,326.5C 365.124,326.64 366.29,325.973 367,324.5C 400.611,326.489 434.444,327.156 468.5,326.5 Z"/></g>
<g><path style="opacity:1" fill="#a7a7a9" d="M 262.5,328.5 C 262.5,354.5 262.5,380.5 262.5,406.5C 270.167,406.5 277.833,406.5 285.5,406.5C 285.5,426.5 285.5,446.5 285.5,466.5C 266.47,467.154 247.803,466.487 229.5,464.5C 238.759,465.154 248.092,465.487 257.5,465.5C 266.859,465.498 275.859,464.832 284.5,463.5C 284.5,444.833 284.5,426.167 284.5,407.5C 276.833,407.5 269.167,407.5 261.5,407.5C 261.169,380.995 261.502,354.661 262.5,328.5 Z"/></g>
<g><path style="opacity:0.004" fill="#000000" d="M 73.5,442.5 C 74.8333,443.167 74.8333,443.167 73.5,442.5 Z"/></g>
<g><path style="opacity:0.004" fill="#000000" d="M 442.5,442.5 C 443.833,443.167 443.833,443.167 442.5,442.5 Z"/></g>
<g><path style="opacity:1" fill="#767779" d="M 230.5,407.5 C 230.5,426.167 230.5,444.833 230.5,463.5C 248.5,463.5 266.5,463.5 284.5,463.5C 275.859,464.832 266.859,465.498 257.5,465.5C 248.092,465.487 238.759,465.154 229.5,464.5C 229.17,445.326 229.503,426.326 230.5,407.5 Z"/></g>
</svg>
